<?xml version="1.0" encoding="UTF-8"?>
<svg version="1.1" xmlns="http://www.w3.org/2000/svg" width="500" height="500">
<path d="M0 0 C165 0 330 0 500 0 C500 165 500 330 500 500 C335 500 170 500 0 500 C0 335 0 170 0 0 Z " fill="#A86BE1" transform="translate(0,0)"/>
<path d="M0 0 C0.66 0 1.32 0 2 0 C4.22526955 4.01932383 6.44892772 8.03953335 8.67114258 12.06054688 C9.42624155 13.42634729 10.18176875 14.79191105 10.93774414 16.15722656 C12.02865359 18.12762332 13.11798461 20.09888568 14.20703125 22.0703125 C14.70877617 22.97537033 14.70877617 22.97537033 15.22065735 23.89871216 C16.15615578 25.5941789 17.07834364 27.29696907 18 29 C18.62165039 30.02327393 19.24330078 31.04654785 19.88378906 32.10083008 C21 35 21 35 20.24584961 37.64282227 C19.71999268 38.52510498 19.19413574 39.4073877 18.65234375 40.31640625 C17.78331421 41.81675415 17.78331421 41.81675415 16.89672852 43.34741211 C16.25018311 44.40839111 15.6036377 45.46937012 14.9375 46.5625 C13.96091431 48.23034546 13.96091431 48.23034546 12.96459961 49.93188477 C11.62729 52.21428951 10.28064796 54.4912514 8.92480469 56.76269531 C6.72666427 60.45971991 4.59694208 64.19149024 2.47900391 67.93481445 C-1.80434367 75.50265245 -6.16776649 83.02502449 -10.51855469 90.55419922 C-11.15180664 91.65006348 -11.78505859 92.74592773 -12.4375 93.875 C-13.07075195 94.97086426 -13.70400391 96.06672852 -14.35644531 97.19580078 C-19.05062794 105.32958269 -23.68848704 113.49377842 -28.30102539 121.67407227 C-36.26104444 135.79039225 -44.32816031 149.8440141 -52.4375 163.875 C-57.77597755 173.11323575 -63.06046512 182.37998739 -68.30102539 191.67407227 C-76.26104489 205.79039305 -84.32820997 219.84398466 -92.4375 233.875 C-98.89694643 245.05391884 -105.29641044 256.26600951 -111.61035156 267.52783203 C-112.55868648 269.21490851 -113.51408342 270.8980299 -114.47558594 272.57763672 C-115.16442871 273.7902417 -115.16442871 273.7902417 -115.8671875 275.02734375 C-116.2782373 275.745271 -116.68928711 276.46319824 -117.11279297 277.20288086 C-118.14755878 278.96486233 -118.14755878 278.96486233 -118 281 C1.295 281.495 1.295 281.495 123 282 C119.7 276.06 116.4 270.12 113 264 C110.61627197 257.72822571 110.61627197 257.72822571 109.62203598 255.0631361 C107.54226122 250.16875016 105.27691754 246.25610425 101 243 C90.86246033 239.41283144 79.47946564 240.3549383 68.8881216 240.66879821 C64.63226129 240.77258924 60.37681701 240.756306 56.11993408 240.75325012 C48.07503382 240.76547223 40.03544939 240.88425014 31.99223447 241.04221755 C22.82919924 241.21692403 13.66664762 241.27150062 4.5022006 241.31644666 C-14.33439626 241.41149683 -33.1663878 241.65591633 -52 242 C-51.03711652 240.23348613 -50.07408577 238.46705254 -49.11099243 236.70065308 C-48.5747204 235.7169618 -48.03844837 234.73327053 -47.48592567 233.71977043 C-44.8172943 228.83522955 -42.09616203 223.98040676 -39.375 219.125 C-38.45932251 217.49099243 -38.45932251 217.49099243 -37.52514648 215.82397461 C-29.94086236 202.30853022 -22.23549485 188.86442544 -14.48144531 175.44580078 C-13.84819336 174.34993652 -13.21494141 173.25407227 -12.5625 172.125 C-11.92924805 171.02913574 -11.29599609 169.93327148 -10.64355469 168.80419922 C-5.94937206 160.67041731 -1.31151296 152.50622158 3.30102539 144.32592773 C8.82646866 134.52709123 14.40194645 124.75751045 20 115 C20.61198242 113.93217285 21.22396484 112.8643457 21.85449219 111.76416016 C36.29210249 86.58690534 36.29210249 86.58690534 43 76 C46.29007861 79.00304591 48.3189605 82.01613015 50.43359375 85.92578125 C50.90469574 86.78889671 50.90469574 86.78889671 51.38531494 87.66944885 C52.05851572 88.90451462 52.72860441 90.14128093 53.39584351 91.37957764 C54.81234049 94.00806285 56.24410422 96.62812022 57.67512512 99.24871826 C58.40341038 100.58265617 59.13093684 101.91700864 59.85771179 103.25177002 C63.07638225 109.15917425 66.36631811 115.0246143 69.6875 120.875 C70.21142334 121.79901611 70.73534668 122.72303223 71.27514648 123.67504883 C72.32408699 125.52418525 73.3734808 127.37306461 74.42333984 129.22167969 C77.6581041 134.9218372 80.87951218 140.62956274 84.1015625 146.33691406 C86.93707461 151.35770223 89.78090216 156.37354146 92.63671875 161.3828125 C93.23097656 162.42759766 93.82523437 163.47238281 94.4375 164.54882812 C95.57685287 166.55159684 96.71865553 168.55297452 97.86328125 170.55273438 C98.63285156 171.9072168 98.63285156 171.9072168 99.41796875 173.2890625 C99.86938232 174.08006348 100.3207959 174.87106445 100.78588867 175.68603516 C102.02317052 178.0441605 103.01098297 180.52745742 104 183 C91.79 183 79.58 183 67 183 C65.55625 180.215625 64.1125 177.43125 62.625 174.5625 C57.72294859 165.18682685 52.45706311 156.06127503 47 147 C46.41089844 146.01773438 45.82179688 145.03546875 45.21484375 144.0234375 C44.81394531 143.35570312 44.41304687 142.68796875 44 142 C43.16082031 143.53140625 43.16082031 143.53140625 42.3046875 145.09375 C37.40718174 153.98949609 32.39002662 162.80456668 27.25 171.5625 C22.1836039 180.20200918 17.20685889 188.88681315 12.3125 197.625 C11.43029785 199.19809937 11.43029785 199.19809937 10.53027344 200.80297852 C7.91335883 205.49065903 5.39226664 210.19303155 3 215 C3.95766769 214.98525131 4.91533539 214.97050262 5.90202332 214.95530701 C15.1174144 214.81442177 24.3328973 214.68201231 33.54851818 214.5570364 C38.28151932 214.49260154 43.01444931 214.42560413 47.74731445 214.35180664 C58.70240573 214.18260106 69.65592679 214.06968587 80.61227417 214.02935791 C84.21284479 214.01452247 87.81220535 213.97759817 91.41238403 213.92279053 C95.72314772 213.85891907 100.03152866 213.84346587 104.34269142 213.86375618 C105.9368699 213.8634437 107.53114561 213.84657606 109.12494469 213.81179619 C121.16591115 213.56502725 121.16591115 213.56502725 125.59962463 217.03392029 C128.96733425 221.19182547 131.37603096 225.65763873 132.87109375 230.80859375 C134.89607243 237.00145218 137.77350432 242.24898604 141.125 247.8125 C142.12276882 249.54386062 143.11761117 251.27691135 144.109375 253.01171875 C147.24657819 258.44092815 150.43288482 263.84070791 153.62451172 269.23803711 C156.87961658 274.75736047 159.97821948 280.34944511 163 286 C165.65384814 290.91914945 168.31129762 295.83186513 171.12109375 300.6640625 C171.48412598 301.29014404 171.8471582 301.91622559 172.22119141 302.5612793 C172.93393482 303.78665584 173.65088139 305.00959991 174.37255859 306.22973633 C176.11501727 309.22643892 177.14774267 311.5909707 178 315 C59.86 315 -58.28 315 -180 315 C-170.27903794 297.17823621 -160.48863673 279.42227268 -150.20117188 261.92114258 C-146.04215763 254.83058469 -141.99694311 247.68302526 -138 240.5 C-132.86374835 231.27065229 -127.59787376 222.12762875 -122.25 213.01953125 C-118.07756041 205.8947181 -114.01504756 198.71453859 -110 191.5 C-104.86368611 182.27068598 -99.59787465 173.12763027 -94.25 164.01953125 C-89.4742304 155.86447824 -84.853866 147.62871571 -80.25878906 139.37084961 C-76.17478332 132.04995472 -71.99212746 124.79279635 -67.75 117.5625 C-63.29593613 109.97076295 -58.92519342 102.34481703 -54.67553711 94.63696289 C-46.61619125 80.03134097 -38.21191138 65.61700826 -29.86425781 51.17504883 C-26.48203058 45.31910441 -23.11431282 39.45551517 -19.76953125 33.578125 C-19.41698273 32.95909805 -19.0644342 32.34007111 -18.70120239 31.70228577 C-17.00793485 28.72880866 -15.31691313 25.75412419 -13.62988281 22.77709961 C-10.3653137 17.0403119 -7.05503339 11.33173754 -3.65234375 5.67578125 C-3.00128662 4.58821533 -2.35022949 3.50064941 -1.67944336 2.38012695 C-1.12522705 1.59468506 -0.57101074 0.80924316 0 0 Z " fill="#F9FCFC" transform="translate(251,93)"/>
</svg>
